# xmcd
#
# Track frame offsets:
#	150
#	26950
#	40347
#	55915
#	92217
#	114158
#	128030
#	142588
#	166039
#	183028
#	195195
#	213584
#
# Disc length: 3074 seconds
#
# Revision: 0
# Processed by: cddbd v1.5.1PL2 Copyright (c) Steve Scherf et al.
# Submitted via: MusicWizard 7.0.2
#
DISCID=950c000c
DTITLE=Colorado - Life Is Live
DYEAR=1900
DGENRE=Country
TTITLE0=Folsom Prison Blues
TTITLE1=Jambalaja
TTITLE2=I Feel Lucky
TTITLE3=Seminole Wind
TTITLE4=Jolene
TTITLE5=My Baby Loves Me
TTITLE6=It Never Rains In Southern California
TTITLE7=Past The Point Of Rescue
TTITLE8=Poison Lovers
TTITLE9=To Daddy
TTITLE10=Tougher Than The Rest
TTITLE11=I Like It I Love It
EXTD=
EXTT0=
EXTT1=
EXTT2=
EXTT3=
EXTT4=
EXTT5=
EXTT6=
EXTT7=
EXTT8=
EXTT9=
EXTT10=
EXTT11=
PLAYORDER=
